<?xml version="1.0" encoding="UTF-8" standalone="no"?>
<!DOCTYPE svg PUBLIC "-//W3C//DTD SVG 1.1//EN" "http://www.w3.org/Graphics/SVG/1.1/DTD/svg11.dtd">
<svg version="1.1" xmlns="http://www.w3.org/2000/svg" xmlns:xlink="http://www.w3.org/1999/xlink" preserveAspectRatio="xMidYMid meet" viewBox="0 0 573 573" width="573" height="573"><defs><path d="M250 497.39C113.37 497.39 2.61 386.63 2.61 250C2.61 113.37 113.37 2.61 250 2.61C386.63 2.61 497.39 113.37 497.39 250C497.39 386.63 386.63 497.39 250 497.39Z" id="aTojBy9ch"></path><radialGradient id="gradientf2EtcnEBjy" gradientUnits="userSpaceOnUse" cx="161.43" cy="258.57" dx="1166.72" dy="-57.23" r="1053.73"><stop style="stop-color: #63e1c5;stop-opacity: 1" offset="0%"></stop><stop style="stop-color: #3c4e85;stop-opacity: 1" offset="100%"></stop></radialGradient><path d="M81.12 203.13C80.57 203.51 76.11 208.14 77.99 207.45C92.06 202.28 105.12 202.56 119.31 197.01C131.3 192.32 141.41 188.26 152.13 182.99C156.25 180.96 141.73 181.66 137.81 183.14C129.34 186.33 119.95 187.05 112.6 190.6C101.71 195.85 90.6 196.7 81.12 203.13Z" id="e3pDZlMZqN"></path><path d="M43.8 229.32C41.26 231.1 34.73 234.66 28.46 238.98C24.07 241.99 18.49 248.18 22.51 248.36C29.7 248.67 34.98 238.96 41.1 234.42C48.9 228.63 59.34 225.94 64.78 218.98C70.55 211.6 66.56 213.15 62.54 214.03C52.58 216.2 50.51 224.62 43.8 229.32Z" id="eVe5uzzgP"></path><path d="M256.44 176.28C250.67 174.36 241.78 174.67 235.25 174.67C229.14 174.67 223 176.7 223.74 177.43C234.29 182.78 250.05 178.58 259.21 181.35C265.44 183.43 272.57 182.96 279.24 182.96C281.34 182.96 305.65 185.03 304.58 181.81C299.48 173.78 276.33 178.48 271.18 178.58C266.27 178.58 260.91 177.77 256.44 176.28Z" id="b8ag5Dyy"></path><linearGradient id="gradientcB4KebrP" gradientUnits="userSpaceOnUse" x1="223.68" y1="179.13" x2="304.61" y2="179.13"><stop style="stop-color: #a0df6a;stop-opacity: 1" offset="0%"></stop><stop style="stop-color: #6089cb;stop-opacity: 1" offset="100%"></stop></linearGradient><path d="M371.59 181.11C377.99 183.65 378.69 181.5 384.57 183.05C391.64 186.58 388.91 184.89 398.53 185.19C408.41 190.86 408.29 186.37 413.22 188.1C421.9 188.62 452.41 202.12 436.49 191.02C425.95 186.84 416.7 182.47 406.61 179.17C401.85 178.07 393.43 177.69 386.67 176.38C374.1 173.95 361.84 170.72 351.26 170.62C358.98 175 362.96 177.64 371.59 181.11Z" id="a2APq7llUM"></path><path d="M279 64.21C286.46 70.9 301.74 68.04 309.03 70.26C336.96 79.57 366.68 81.54 393.58 95C394.49 94.03 419.81 105.62 419.83 105.6C420.99 103.27 411.32 96.93 408.97 96.26C390.34 91.95 371.36 77.6 352.95 74.05C345.74 71.95 279.12 61.99 279 64.21Z" id="b5SfTnvHa8"></path><path d="M278.84 383.95C290.61 384.26 304.48 396.17 311.95 400.06C317.64 403.03 366.71 391.69 352.89 392.74C336.86 389.16 333.12 377.08 320.99 376.29C302.13 375.15 295.04 385.34 277.66 383.49C277.35 383.78 278.43 383.87 278.84 383.95Z" id="eYXMONv5T"></path><path d="M319.33 383.49C313.18 385.92 317.49 395.36 322.59 391.3C327.7 387.25 325.48 381.05 319.33 383.49Z" id="bniqGEqj0"></path><path d="M31.09 316.84C50.78 324.47 70.9 314.74 99.14 303.53C130.45 291.09 155.49 279.91 146.49 267.92C121.05 251.54 101.68 260.59 70.38 269.45C57.44 273.12 22.47 304.04 31.09 316.84Z" id="a2B3JShty"></path><linearGradient id="gradientc20XoXXfgV" gradientUnits="userSpaceOnUse" x1="29.74" y1="289.19" x2="148.35" y2="289.19"><stop style="stop-color: #7fdf6a;stop-opacity: 1" offset="0%"></stop><stop style="stop-color: #4b609c;stop-opacity: 1" offset="100%"></stop></linearGradient><path d="M92.94 306C108.24 300.46 117.86 291.62 132.44 287.7C138.04 286.19 118.03 301.97 113.59 304.87C89.69 321.16 41.81 328.12 45.41 325.9C63.09 319.08 74.83 312.55 92.94 306Z" id="a24GSiEKrU"></path><path d="M120.23 260.57C101.47 267.68 74.82 270.02 78.01 267.07C89.14 256.78 99.74 257.05 120.23 260.57Z" id="a20N0wlC0W"></path><path d="M163.04 257.64C160.46 258.91 156.85 269.27 157.58 270.01C172.68 264.5 172.03 262.06 188 255.74C203.09 252.92 235.96 250.78 248.53 249.13C209.01 240.28 202.63 248.12 185.24 250.67C173.15 254.56 168.89 254.77 163.04 257.64Z" id="c75NDYnuTS"></path><linearGradient id="gradientcPNESfsSu" gradientUnits="userSpaceOnUse" x1="157.48" y1="257.52" x2="248.53" y2="257.52"><stop style="stop-color: #cfff7b;stop-opacity: 1" offset="0%"></stop><stop style="stop-color: #6f9ce7;stop-opacity: 1" offset="100%"></stop></linearGradient></defs><g><g><g><use xlink:href="#aTojBy9ch" opacity="1" fill="url(#gradientf2EtcnEBjy)"></use><g><use xlink:href="#aTojBy9ch" opacity="1" fill-opacity="0" stroke="#000000" stroke-width="0" stroke-opacity="1"></use></g></g><g><use xlink:href="#e3pDZlMZqN" opacity="1" fill="#7a7971" fill-opacity="1"></use><g><use xlink:href="#e3pDZlMZqN" opacity="1" fill-opacity="0" stroke="#000000" stroke-width="1" stroke-opacity="0"></use></g></g><g><use xlink:href="#eVe5uzzgP" opacity="1" fill="#b08921" fill-opacity="1"></use><g><use xlink:href="#eVe5uzzgP" opacity="1" fill-opacity="0" stroke="#000000" stroke-width="1" stroke-opacity="0"></use></g></g><g><use xlink:href="#b8ag5Dyy" opacity="1" fill="url(#gradientcB4KebrP)"></use><g><use xlink:href="#b8ag5Dyy" opacity="1" fill-opacity="0" stroke="#000000" stroke-width="1" stroke-opacity="0"></use></g></g><g><use xlink:href="#a2APq7llUM" opacity="1" fill="#a1814d" fill-opacity="1"></use><g><use xlink:href="#a2APq7llUM" opacity="1" fill-opacity="0" stroke="#000000" stroke-width="1" stroke-opacity="0"></use></g></g><g><use xlink:href="#b5SfTnvHa8" opacity="1" fill="#999891" fill-opacity="1"></use><g><use xlink:href="#b5SfTnvHa8" opacity="1" fill-opacity="0" stroke="#000000" stroke-width="1" stroke-opacity="0"></use></g></g><g><use xlink:href="#eYXMONv5T" opacity="1" fill="#6b335b" fill-opacity="1"></use><g><use xlink:href="#eYXMONv5T" opacity="1" fill-opacity="0" stroke="#000000" stroke-width="1" stroke-opacity="0"></use></g></g><g><use xlink:href="#bniqGEqj0" opacity="1" fill="#5578b2" fill-opacity="1"></use><g><use xlink:href="#bniqGEqj0" opacity="1" fill-opacity="0" stroke="#000000" stroke-width="1" stroke-opacity="0"></use></g></g><g><use xlink:href="#a2B3JShty" opacity="1" fill="url(#gradientc20XoXXfgV)"></use><g><use xlink:href="#a2B3JShty" opacity="1" fill-opacity="0" stroke="#000000" stroke-width="1" stroke-opacity="0"></use></g></g><g><use xlink:href="#a24GSiEKrU" opacity="1" fill="#6f9ce7" fill-opacity="1"></use><g><use xlink:href="#a24GSiEKrU" opacity="1" fill-opacity="0" stroke="#000000" stroke-width="1" stroke-opacity="0"></use></g></g><g><use xlink:href="#a20N0wlC0W" opacity="1" fill="#6f9ce7" fill-opacity="1"></use><g><use xlink:href="#a20N0wlC0W" opacity="1" fill-opacity="0" stroke="#000000" stroke-width="1" stroke-opacity="0"></use></g></g><g><use xlink:href="#c75NDYnuTS" opacity="1" fill="url(#gradientcPNESfsSu)"></use><g><use xlink:href="#c75NDYnuTS" opacity="1" fill-opacity="0" stroke="#000000" stroke-width="1" stroke-opacity="0"></use></g></g></g></g></svg>